<svg width="160" height="160" viewBox="0 0 160 160" fill="none" xmlns="http://www.w3.org/2000/svg">
  <path d="M80 80 C80 80 75 50 80 30 C85 15 80 10 80 10
    M80 80 C80 80 108 62 125 55 C140 50 145 52 145 52
    M80 80 C80 80 100 105 108 125 C115 140 112 145 112 145
    M80 80 C80 80 55 105 48 125 C42 140 45 145 45 145
    M80 80 C80 80 52 62 35 55 C20 50 15 52 15 52
    M80 80 C78 78 82 78 80 80"
    stroke="currentColor" stroke-width="6" stroke-linecap="round" stroke-linejoin="round"/>
  <circle cx="80" cy="80" r="8" stroke="currentColor" stroke-width="5" fill="none"/>
</svg>
