<svg width="300" height="120" viewBox="0 0 300 120" fill="none" xmlns="http://www.w3.org/2000/svg">
  <path d="M10 80 C30 80 40 30 70 30 C100 30 100 80 130 80 C160 80 160 40 190 40 C220 40 220 80 250 80 C270 80 280 60 290 55"
    stroke="currentColor" stroke-width="6" stroke-linecap="round"/>
  <path d="M5 100 C25 100 35 60 65 60 C95 60 95 100 125 100 C155 100 155 70 185 70 C215 70 215 100 245 100 C265 100 275 85 295 80"
    stroke="currentColor" stroke-width="6" stroke-linecap="round"/>
</svg>
